<?xml version="1.0" encoding="utf-8"?>
<!-- Generator: Adobe Illustrator 26.0.3, SVG Export Plug-In . SVG Version: 6.00 Build 0)  -->
<svg version="1.1" id="Layer_1" xmlns="http://www.w3.org/2000/svg" xmlns:xlink="http://www.w3.org/1999/xlink" x="0px" y="0px"
	 viewBox="0 0 245.1 275.2" style="enable-background:new 0 0 245.1 275.2;" xml:space="preserve">
<style type="text/css">
	.st0{fill:#158AFD;}
	.st1{fill:url(#SVGID_1_);}
	.st2{fill:url(#SVGID_00000142145990707275565180000014906423941758716310_);}
	.st3{fill:#FFFFFF;}
</style>
<circle class="st0" cx="119" cy="134.7" r="107.2"/>
<linearGradient id="SVGID_1_" gradientUnits="userSpaceOnUse" x1="47.4446" y1="189.5398" x2="110.1768" y2="80.8844">
	<stop  offset="0.1283" style="stop-color:#FFFFFF"/>
	<stop  offset="0.2426" style="stop-color:#F6FAFF"/>
	<stop  offset="0.4322" style="stop-color:#DCEDFE"/>
	<stop  offset="0.472" style="stop-color:#D6EAFE"/>
</linearGradient>
<path class="st1" d="M51,175.5V94.9c0-15.4,12.5-27.8,27.8-27.8h0c15.4,0,27.8,12.5,27.8,27.8v80.6c0,15.4-12.5,27.8-27.8,27.8h0
	C63.4,203.3,51,190.9,51,175.5z"/>
<linearGradient id="SVGID_00000116204994512003948080000013072917850427450268_" gradientUnits="userSpaceOnUse" x1="270.1907" y1="75.1409" x2="311.0344" y2="201.7915" gradientTransform="matrix(0.7071 -0.7071 0.851 0.851 -205.5671 221.0109)">
	<stop  offset="0.2546" style="stop-color:#FFFFFF"/>
	<stop  offset="0.3595" style="stop-color:#F6FAFF"/>
	<stop  offset="0.5329" style="stop-color:#DDEDFE"/>
	<stop  offset="0.5831" style="stop-color:#D4E9FE"/>
</linearGradient>
<path style="fill:url(#SVGID_00000116204994512003948080000013072917850427450268_);" d="M134.2,191.3L59.8,117
	c-11.5-11.5-11.5-30.1,0-41.6l0,0c11.5-11.5,30.1-11.5,41.6,0l74.4,74.4c11.5,11.5,11.5,30.1,0,41.6l0,0
	C164.3,202.8,145.6,202.8,134.2,191.3z"/>
<path class="st3" d="M130.8,176.1V93.3c0-14.8,12-26.7,26.7-26.7h2.8c14.8,0,26.7,12,26.7,26.7v82.8c0,14.8-12,26.7-26.7,26.7h-2.8
	C142.8,202.8,130.8,190.9,130.8,176.1z"/>
</svg>
