<?xml version="1.0" encoding="utf-8"?>
<!-- Generator: Adobe Illustrator 26.0.3, SVG Export Plug-In . SVG Version: 6.00 Build 0)  -->
<svg version="1.1" id="Layer_1" xmlns="http://www.w3.org/2000/svg" xmlns:xlink="http://www.w3.org/1999/xlink" x="0px" y="0px"
	 viewBox="0 0 1220.4 275.2" style="enable-background:new 0 0 1220.4 275.2;" xml:space="preserve">
<style type="text/css">
	.st0{fill:#158AFD;}
	.st1{fill:#FFFFFF;}
	.st2{fill:url(#SVGID_1_);}
	.st3{fill:url(#SVGID_00000085245443420746029100000000696433434929185982_);}
	.st4{fill:#FFFFFF;}
</style>
<circle class="st0" cx="158.5" cy="134.7" r="107.2"/>
<g>
	<g>
		<path class="st1" d="M321,128.9c0,8,0,15.7,0,23.5c0,7.7,0,15.4,0,23.3c-3.9,0-7.6,0-11.4,0c0-22.7,0-45.4,0-68.2
			c2.9,0,5.8-0.2,8.5,0.1c1.1,0.1,2.2,1.4,3,2.3c4.1,5.1,8.1,10.3,12.2,15.4c7.5,9.6,15.1,19.2,22.8,29c0-15.9,0-31.4,0-47
			c3.8,0,7.5,0,11.3,0c0,22.8,0,45.5,0,68.4c-2.6,0-5.2,0.3-7.7-0.1c-1.3-0.2-2.7-1.2-3.6-2.3c-8.7-10.9-17.3-21.9-26-32.9
			C327.1,136.6,324.1,132.8,321,128.9z"/>
		<path class="st1" d="M1022,161.5c1.6-5.9,3.1-11.2,4.5-16.6c1.3-4.9,2.7-9.7,4-14.6c0.7-2.5,1.6-3.2,4.2-3.3c2.7,0,5.5,0,8.4,0
			c-0.5,1.6-0.9,3-1.3,4.4c-4.5,14.3-9.1,28.6-13.6,42.9c-0.3,1-0.7,1.4-1.8,1.4c-2.4-0.1-4.9-0.1-7.3,0c-2,0.1-2.8-0.9-3.3-2.5
			c-1.7-5.5-3.4-11-5.1-16.5c-1.6-5.1-3.2-10.2-4.8-15.4c-0.4,1.4-0.7,2.9-1.2,4.3c-2.8,9-5.7,18-8.5,27c-0.9,2.8-1.3,3.1-4.3,3.1
			c-2.1,0-4.2-0.1-6.3,0c-1.2,0.1-1.7-0.4-2-1.4c-3.4-10.9-6.9-21.7-10.3-32.5c-1.4-4.4-2.7-8.7-4.1-13.1c-0.1-0.4-0.2-0.9-0.4-1.5
			c3.6,0,7-0.1,10.5,0.1c1.7,0.1,2.3,1.7,2.7,3.2c2.8,10.5,5.6,20.9,8.3,31.4c0.9-3,1.9-6.2,2.9-9.4c2.3-7.4,4.6-14.8,6.9-22.3
			c0.8-2.5,1.6-3.1,4.3-3.1c1.3,0,2.6,0,3.9,0c2.5,0,3.4,0.6,4.1,3c2.3,7.6,4.6,15.1,6.8,22.7c0.7,2.4,1.4,4.9,2.1,7.3
			C1021.4,160.4,1021.6,160.7,1022,161.5z"/>
		<path class="st1" d="M459.4,170.5c-5.3-3.9-4.8-11.1,2.2-15.4c-0.8-0.6-1.5-1.2-2.2-1.7c-7.5-6-6.9-18.3,1.2-23.5
			c7.1-4.5,14.6-4.7,22.4-1.8c1,0.4,2.1,0.6,3.1,0.6c3.5,0.1,6.9,0,10.4,0c0.6,0,1.3,0,1.8,0c0.1,0.3,0.1,0.4,0.1,0.4
			c0.5,6.1,0.4,6.2-5.5,7.3c-0.3,0.1-0.7,0.2-0.9,0.2c0.2,2.2,0.5,4.3,0.4,6.4c-0.2,6-3.6,10.1-8.8,12.6c-4.3,2.1-9,2.6-13.8,1.9
			c-1.3-0.2-2.3,0-3.2,1.1c-1.2,1.5-0.9,3.2,0.9,3.7c1.9,0.6,3.9,0.9,5.9,1.1c5,0.6,10.1,0.7,15,1.8c8,1.8,10.3,8.5,7.7,15.6
			c-1.3,3.7-4,6.3-7.4,8.2c-6.1,3.5-12.7,4.3-19.5,3.6c-4.7-0.5-9.2-1.4-13-4.4c-6.9-5.4-5.9-13.6,2-17.2
			C458.7,170.8,459.1,170.7,459.4,170.5z M473.8,184.7c3-0.7,6-1.1,8.8-2c2.5-0.8,3.8-3,3.6-5c-0.2-1.9-1.5-3.3-4.4-3.7
			c-4.3-0.6-8.6-0.7-12.9-1.3c-2.2-0.3-3.6,0.5-5,1.9c-2.7,2.8-2.1,6.7,1.5,8.1C468.1,183.7,471,184.1,473.8,184.7z M473.7,150.1
			c0.7-0.1,1.5-0.1,2.3-0.3c3.6-0.7,5.8-3.3,6-6.9c0.2-3.7-1.5-6.8-4.8-7.6c-1.7-0.5-3.5-0.6-5.3-0.5c-3.8,0.3-6.1,2.4-6.7,5.6
			C464.2,146.1,467.6,150.1,473.7,150.1z"/>
		<path class="st1" d="M570.8,170.9c-0.2,0.8-0.2,1.9-0.7,2.8c-0.4,0.8-1.3,1.9-2,1.9c-2.8,0.2-5.6,0.1-8.4,0.1
			c0-23.5,0-46.8,0-70.2c3.8,0,7.7,0,11.8,0c0,9,0,18,0,26.6c3-1.7,5.8-3.8,9-4.8c9.4-3.1,18.1,1,21.6,10.3
			c3.7,9.9,3.8,19.9-1.6,29.4c-4.8,8.4-15.5,12.1-23.7,8.1C574.6,174,572.8,172.4,570.8,170.9z M571.5,152.2c0,3.2,0,6.3,0,9.5
			c0,0.7,0.2,1.4,0.6,1.9c4.1,5.2,15.4,5.8,18.6-3.3c1.9-5.5,1.9-11.2,0.6-16.8c-0.9-4-3-7.1-7.4-7.7c-4.2-0.6-7.8,0.8-10.8,3.8
			c-1.2,1.2-1.8,2.4-1.7,4.1C571.6,146.5,571.5,149.4,571.5,152.2z"/>
		<path class="st1" d="M818.4,176.5c-8.1-0.1-15.4-2.5-21.6-7.9c-1-0.8-1.1-1.4-0.3-2.5c1-1.3,1.7-2.9,2.6-4.3
			c1.4-2.3,3.3-2.7,5.6-1.4c2.5,1.4,4.8,3.1,7.5,4.2c4.2,1.8,8.6,1.9,12.8,0c3.2-1.4,4.6-4.1,4.9-7.5c0.3-3.3-0.9-6-3.8-7.4
			c-2.9-1.4-5.9-2.3-8.9-3.6c-3.9-1.6-8.2-2.8-11.7-5.1c-8.7-5.6-9-19.1-2.9-26.5c4.1-5,9.6-7.5,16-7.9c7.8-0.6,15,1.1,21.3,6
			c1,0.8,1.2,1.4,0.6,2.5c-0.8,1.4-1.5,2.8-2.2,4.3c-1.4,2.6-2.8,2.9-5.6,1.6c-2.8-1.3-5.5-2.8-8.5-3.6c-3.3-0.9-6.8-0.5-9.8,1.4
			c-4.8,3-4.9,9.6-0.1,12.4c2.9,1.7,6.3,2.7,9.5,4c2.6,1.1,5.4,1.9,8,3.1c6.5,3,10.2,7.8,10.6,15.2c0.4,8.4-3.9,16.5-11.4,20.3
			C826.9,175.8,822.7,176.6,818.4,176.5z"/>
		<path class="st1" d="M517.5,131.4c3.1-1.5,6.1-3.6,9.3-4.4c6-1.5,11.9-0.9,16.5,3.9c2.9,3,4.5,6.7,4.6,10.8
			c0.3,11.2,0.2,22.4,0.3,33.5c0,0.1-0.1,0.2-0.2,0.4c-3.9,0-7.7,0-11.8,0c0-0.7,0-1.3,0-2c0-9,0-18.1,0-27.1c0-0.8,0-1.5,0-2.3
			c-0.3-6.8-5-10.1-11.5-8c-1.8,0.6-3.4,1.7-5,2.6c-1.6,0.9-2.2,2.3-2.1,4.3c0.1,10.1,0.1,20.2,0.1,30.3c0,0.6,0,1.3,0,2.1
			c-4,0-7.8,0-11.8,0c0-23.3,0-46.6,0-70.1c3.8,0,7.7,0,11.7,0C517.5,114.3,517.5,123,517.5,131.4z"/>
		<path class="st1" d="M847.7,151.2c0-6.9,1.6-13.2,6.6-18.2c5.8-5.8,13.1-7.3,20.9-6.5c14.8,1.6,21.5,13.4,20.6,27.3
			c-0.3,4.7-1.6,9.1-4.2,13c-3.6,5.3-8.7,8.2-14.9,9.2c-6.5,1-12.9,0.4-18.6-3.3c-6.9-4.4-9.8-11.1-10.4-18.9
			C847.7,153,847.7,152.1,847.7,151.2z M883.9,151.4c-0.6-3-0.9-6-1.8-8.8c-1.4-4.3-4.5-6.7-9.1-7c-4.8-0.3-8.8,1-11,5.6
			c-2.5,5.2-2.5,10.7-1.4,16.2c1.6,8.8,8.2,11.1,15.4,9.2c2.3-0.6,4-2.2,5.3-4.3C883.2,159,883.5,155.3,883.9,151.4z"/>
		<path class="st1" d="M658.2,152.5c0,3.1-0.6,7-2.3,10.8c-2.6,5.9-7,10-13.2,11.9c-6.1,1.9-12.2,1.9-18.2-0.3
			c-9.3-3.4-13.9-11.7-14.5-20.8c-0.3-4.5,0-9,1.7-13.3c3.4-8.5,9.8-13.1,18.8-14.1c9.5-1,17.9,1.2,23.6,9.6
			C657.3,140.8,658.3,146,658.2,152.5z M646.4,151.6c-0.1,0-0.2-0.1-0.3-0.1c-0.2-1.8-0.2-3.7-0.6-5.5c-1.6-9.1-7.8-11.8-15.6-9.7
			c-2.1,0.6-3.9,1.9-4.9,3.9c-3.6,6.9-3.6,14.1-0.7,21.2c1.8,4.4,5.6,5.9,10.1,5.9c4.6,0,8.2-1.8,9.9-6.2
			C645.3,158,645.7,154.7,646.4,151.6z"/>
		<path class="st1" d="M1146.4,153.1c0.5,5.9,2.1,10.9,7.9,13.2c4.8,1.9,9.6,0.9,14.1-1.4c5.3-2.7,5.3-2.7,8.9,1.9
			c0.4,0.5,0.8,1,1.3,1.7c-2.2,2.9-5.2,4.9-8.6,6.1c-6.9,2.5-14,2.9-20.9,0.3c-6.1-2.3-10.3-6.7-12.5-12.7c-2.7-7.1-3-14.3-0.3-21.4
			c4-10.6,14.1-15.5,24.9-14.1c13.4,1.7,18.6,12.6,17.8,23.8c-0.2,2.2-1,2.7-3.7,2.7c-8.9,0-17.8,0-26.6,0
			C1147.9,153.1,1147.2,153.1,1146.4,153.1z M1168,145.6c0.8-5.2-3.3-10.2-8.5-10.6c-7.5-0.7-12.1,3.8-12.7,10.6
			C1153.9,145.6,1160.9,145.6,1168,145.6z"/>
		<path class="st1" d="M389.2,153.1c0.3,7.4,3.5,12.5,9.9,13.8c4.2,0.9,8.1,0,11.9-1.9c5.5-2.8,5.5-2.7,9.3,2.1
			c0.3,0.4,0.6,0.9,1,1.4c-1.6,2.2-3.6,3.8-6,4.9c-9,4.3-18.1,4.7-27-0.2c-4-2.2-6.8-5.7-8.6-9.9c-2.9-6.8-3.4-13.8-1.2-20.9
			c3.5-11.7,14.1-17.1,25.4-15.7c13.1,1.6,18.6,12.3,17.8,23.6c-0.2,2.4-0.9,2.9-3.9,2.9c-8.8,0-17.6,0-26.5,0
			C390.6,153.1,390,153.1,389.2,153.1z M410.7,145.6c0.6-5.9-3.5-10.4-9.5-10.6c-5.9-0.3-11.2,3.2-11.7,10.6
			C396.6,145.6,403.7,145.6,410.7,145.6z"/>
		<path class="st1" d="M1087.7,175.7c-2.3,0-4.4,0.1-6.4,0c-1.3,0-2.4-0.7-2.9-2c-0.4-1.2-0.8-2.3-1.2-3.6c-1.6,1.2-3,2.5-4.6,3.4
			c-6.6,3.7-13.5,4.5-20.3,0.6c-5.9-3.5-7.3-13.8-1.4-19.1c4-3.6,9-5.1,14.1-6c3.6-0.7,7.3-0.9,11.4-1.3c-0.4-2.5-0.5-5.1-1.1-7.5
			c-0.8-2.9-3.2-4.1-6.1-4.4c-3.3-0.3-6.3,0.7-9.2,2.2c-0.2,0.1-0.3,0.2-0.5,0.3c-5.1,2.9-7.7,1.9-9.8-3.6c-0.1-0.3,0.1-1,0.4-1.3
			c4.7-4.1,10.2-6.4,16.5-6.9c3.8-0.3,7.5-0.2,11,1.4c6,2.7,9.4,7.5,9.7,13.8c0.5,9,0.3,18.1,0.4,27.1
			C1087.8,170.9,1087.7,173.2,1087.7,175.7z M1076.1,155.2c-1.5,0.1-2.7,0-3.8,0.2c-3.8,0.4-7.7,0.8-11.1,2.8
			c-2.2,1.3-3.2,3.6-2.6,5.9c0.6,2.4,2.2,3.7,4.8,4c4.9,0.6,8.8-1.2,12.2-4.6c0.3-0.3,0.5-0.7,0.5-1.1
			C1076.2,160.1,1076.1,157.8,1076.1,155.2z"/>
		<path class="st1" d="M775.4,127c-0.7,1.6-1.2,2.9-1.7,4.2c-8.1,18.9-16.2,37.8-24.3,56.7c-1.1,2.6-2.7,3.8-5.6,3.7
			c-2.5-0.1-5,0-7.8,0c0.2-0.6,0.4-1.1,0.6-1.5c2.6-5.5,5.1-11,7.7-16.4c0.5-1.1,0.6-2,0.1-3.2c-6-13.7-12-27.4-18-41
			c-0.3-0.7-0.5-1.4-0.9-2.3c3.9,0,7.5-0.2,11.2,0.1c1,0.1,2.2,1.4,2.7,2.5c3.9,9.5,7.7,19,11.5,28.5c0,0,0.1,0.1,0.2,0.2
			c1.9-5,3.9-10,5.8-15c1.7-4.5,3.5-9,5.2-13.4c0.9-2.2,2-2.9,4.3-3C769.4,127,772.2,127,775.4,127z"/>
		<path class="st1" d="M906.9,136.7c-2.5-1-5.2-1.3-6.6-2.9c-1.1-1.2-0.7-3.9-1-6.2c2.7,0,5,0,7.3,0c0.3-2.9,0.3-5.6,0.8-8.2
			c1.3-7.4,7.2-12.6,14.7-12.9c2.7-0.1,5.4,0.1,8.1,0.4c0.4,0,1.1,0.8,1.1,1.3c0.1,1.4,0,2.8-0.1,4.3c-0.1,1.8-1.1,2.5-2.7,2.6
			c-1.1,0.1-2.1,0.1-3.2,0.2c-4.1,0.5-6.1,2.3-6.7,6.4c-0.3,1.9,0,3.8,0,5.9c4.1,0,8.2,0,12.3,0c0,2.9,0,5.6,0,8.5
			c-4,0-7.9,0-12.1,0c0,6.8,0,13.3,0,19.9c0,6.5,0,13.1,0,19.7c-4,0-7.9,0-11.9,0C906.9,162.5,906.9,149.4,906.9,136.7z"/>
		<path class="st1" d="M953,127.5c4.1,0,8.1,0,12.3,0c0,2.9,0,5.6,0,8.5c-4.1,0-8.2,0-12.4,0c0,0.7-0.1,1.3-0.1,1.9
			c0,7.7,0,15.5,0,23.2c0,0.4,0,0.7,0,1.1c0.3,4.2,3,5.8,6.9,4c2.6-1.2,2.9-1.2,4.4,1.3c0.9,1.5,1.9,3,2.8,4.6
			c-3.3,2.8-7,4-11.1,4.3c-9.8,0.7-15-4.5-14.9-14.3c0-8,0-15.9,0-23.9c0-0.6,0-1.3,0-2.1c-1.6,0-3,0-4.4,0
			c-1.9-0.1-2.7-0.9-2.8-2.8c-0.3-4.5-0.3-4.5,4.2-5.2c3.7-0.6,3.7-0.6,4.3-4.3c0.5-2.9,1.1-5.8,1.6-8.7c0.3-1.8,1.3-2.7,3.1-2.8
			c6-0.5,6-0.5,6,5.4c0,3.1,0,6.2,0,9.3C952.8,127.1,952.9,127.2,953,127.5z"/>
		<path class="st1" d="M718.4,175.6c-3.9,0-7.7,0-11.6,0c0-23.4,0-46.7,0-70.1c3.8,0,7.6,0,11.6,0
			C718.4,128.8,718.4,152.1,718.4,175.6z"/>
		<path class="st1" d="M678.4,135.2c1.4-1.7,2.7-3.4,4.2-4.9c3.9-3.8,8.5-5,13.8-3.4c1.5,0.5,2.1,1.3,1.7,2.9
			c-0.4,1.8-0.7,3.6-1,5.4c-0.5,3.1-1,3.4-4.2,2.9c-1.5-0.2-3-0.3-4.4-0.3c-5.1,0.3-9.4,5-9.4,10c0,8.6,0,17.1,0,25.7
			c0,0.6,0,1.3,0,2c-4,0-7.9,0-11.9,0c0-16.1,0-32.2,0-48.4c2.7,0,5.4-0.2,8.1,0.1c0.8,0.1,1.8,1.2,2,2.1
			C678,131.2,678.1,133.2,678.4,135.2z"/>
		<path class="st1" d="M1111,175.7c-4.1,0-7.9,0-11.8,0c0-16.2,0-32.3,0-48.5c2.6,0,5.2-0.1,7.7,0c2,0.1,2.5,1.5,2.7,3.2
			c0.2,1.6,0.4,3.2,0.6,4.9c1.5-1.7,2.7-3.4,4.1-4.8c4-3.9,8.7-5.2,14.1-3.4c1.4,0.5,1.8,1.2,1.5,2.7c-0.4,2.1-0.7,4.2-1.1,6.3
			c-0.4,2.2-0.9,2.5-3.2,2.3c-1.7-0.2-3.3-0.5-5-0.4c-5.4,0.2-9.8,4.9-9.8,10.2c0,8.5,0,17,0,25.5C1111,174.2,1111,174.9,1111,175.7
			z"/>
		<path class="st1" d="M431.9,127.2c4,0,7.8,0,11.7,0c0,16.1,0,32.2,0,48.4c-3.9,0-7.7,0-11.7,0
			C431.9,159.5,431.9,143.4,431.9,127.2z"/>
		<path class="st1" d="M437.7,105.5c4.3,0,7.7,3.4,7.7,7.7c0,4-3.5,7.3-7.6,7.4c-4.1,0-7.5-3.3-7.5-7.4
			C430.2,108.9,433.5,105.5,437.7,105.5z"/>
	</g>
</g>
<linearGradient id="SVGID_1_" gradientUnits="userSpaceOnUse" x1="86.9374" y1="189.5398" x2="149.6697" y2="80.8844">
	<stop  offset="0.1283" style="stop-color:#FFFFFF"/>
	<stop  offset="0.2426" style="stop-color:#F6FAFF"/>
	<stop  offset="0.4322" style="stop-color:#DCEDFE"/>
	<stop  offset="0.472" style="stop-color:#D6EAFE"/>
</linearGradient>
<path class="st2" d="M90.5,175.5V94.9c0-15.4,12.5-27.8,27.8-27.8h0c15.4,0,27.8,12.5,27.8,27.8v80.6c0,15.4-12.5,27.8-27.8,27.8h0
	C102.9,203.3,90.5,190.9,90.5,175.5z"/>
<linearGradient id="SVGID_00000163759844464111713520000005777055332043859882_" gradientUnits="userSpaceOnUse" x1="309.6836" y1="75.1409" x2="350.5273" y2="201.7915" gradientTransform="matrix(0.7071 -0.7071 0.851 0.851 -193.9999 248.9366)">
	<stop  offset="0.2546" style="stop-color:#FFFFFF"/>
	<stop  offset="0.3595" style="stop-color:#F6FAFF"/>
	<stop  offset="0.5329" style="stop-color:#DDEDFE"/>
	<stop  offset="0.5831" style="stop-color:#D4E9FE"/>
</linearGradient>
<path style="fill:url(#SVGID_00000163759844464111713520000005777055332043859882_);" d="M173.6,191.3L99.3,117
	c-11.5-11.5-11.5-30.1,0-41.6l0,0c11.5-11.5,30.1-11.5,41.6,0l74.4,74.4c11.5,11.5,11.5,30.1,0,41.6l0,0
	C203.8,202.8,185.1,202.8,173.6,191.3z"/>
<path class="st4" d="M170.3,176.1V93.3c0-14.8,12-26.7,26.7-26.7h2.8c14.8,0,26.7,12,26.7,26.7v82.8c0,14.8-12,26.7-26.7,26.7H197
	C182.3,202.8,170.3,190.9,170.3,176.1z"/>
</svg>
